<?xml version="1.0" encoding="utf-8"?>
<!-- Generator: Adobe Illustrator 25.4.1, SVG Export Plug-In . SVG Version: 6.00 Build 0)  -->
<svg version="1.0" id="Layer_1" xmlns="http://www.w3.org/2000/svg" xmlns:xlink="http://www.w3.org/1999/xlink" x="0px" y="0px"
	 viewBox="0 0 229 156.6" style="enable-background:new 0 0 229 156.6;" xml:space="preserve">
<style type="text/css">
	.st0{fill:#5F259F;}
	.st1{fill:#FFFFFF;}
	.st2{fill:none;}
</style>
<circle class="st0" cx="48.2" cy="78.3" r="24.7"/>
<path class="st0" d="M148.5,92.4v-9c0-2.2-0.8-3.3-2.9-3.3c-0.8,0-1.6,0.1-2.3,0.3v13.1c0,0.4-0.4,0.8-0.8,0.8h-3.2
	c-0.4,0-0.8-0.4-0.8-0.8V78.2c0-0.5,0.3-0.9,0.8-1.1c2-0.7,4.2-1.1,6.4-1.1c5,0,7.7,2.6,7.7,7.5v10.2c0,0.4-0.4,0.8-0.8,0.8h-1.9
	c-1.1,0-2-0.8-2.1-1.9C148.5,92.5,148.5,92.4,148.5,92.4z M160.9,87l-0.1,1.2c0,1.7,1.1,2.6,2.9,2.6c1.4,0,2.8-0.4,4-1.1
	c0.1,0,0.3-0.1,0.4-0.1c0.2,0,0.4,0.1,0.6,0.3c0.2,0.2,0.3,0.4,0.4,0.6c0.3,0.4,0.5,0.9,0.6,1.4c0,0.7-0.4,1.3-1,1.7
	c-1.6,0.8-3.4,1.3-5.2,1.2c-1.9,0.1-3.8-0.5-5.4-1.7c-1.4-1.3-2.2-3.1-2.2-5v-5.4c0-4.3,2.8-6.9,7.4-6.9s7.2,2.5,7.2,6.9V86
	c0,0.4-0.4,0.8-0.8,0.8h-8.7L160.9,87z M160.8,84h5.2v-1.4c0.1-1.4-0.8-2.6-2.2-2.8c-0.1,0-0.3,0-0.4,0c-1.3-0.1-2.5,0.9-2.6,2.2
	c0,0.2,0,0.4,0,0.5V84z M196,87l-0.1,1.2c0,1.7,1.1,2.6,2.9,2.6c1.4,0,2.8-0.4,4-1.1c0.1,0,0.3-0.1,0.4-0.1c0.2,0,0.4,0.1,0.6,0.3
	c0.1,0.2,0.3,0.4,0.4,0.6c0.3,0.4,0.5,0.9,0.6,1.4c0,0.7-0.4,1.3-1,1.7c-1.6,0.8-3.4,1.3-5.2,1.2c-1.9,0.1-3.8-0.5-5.4-1.7
	c-1.4-1.3-2.2-3.1-2.2-5v-5.4c0-4.3,2.8-6.9,7.4-6.9s7.2,2.5,7.2,6.9V86c0,0.4-0.4,0.8-0.8,0.8H196L196,87z M195.9,84h5.2v-1.4
	c0.1-1.4-0.8-2.6-2.2-2.7c-0.1,0-0.3,0-0.4,0c-1.3-0.1-2.5,0.9-2.6,2.2c0,0.2,0,0.4,0,0.6L195.9,84z M114.7,94.5h1.9
	c0.4,0,0.8-0.4,0.8-0.8V83.4c0-4.7-2.5-7.5-6.6-7.5c-1.2,0-2.3,0.2-3.4,0.6v-5.1c0-1.1-0.9-2-2.1-2.1h-1.9c-0.4,0-0.8,0.4-0.8,0.8
	v23.5c0,0.4,0.4,0.8,0.8,0.8h3.2c0.4,0,0.8-0.4,0.8-0.8v-13c0.8-0.3,1.5-0.4,2.3-0.4c2.1,0,2.9,1,2.9,3.3v9
	C112.7,93.6,113.6,94.4,114.7,94.5L114.7,94.5z M135.5,82.9V88c0,4.3-2.9,6.9-7.7,6.9c-4.7,0-7.7-2.6-7.7-6.9v-5.1
	c0-4.3,2.9-6.9,7.7-6.9C132.6,76,135.5,78.6,135.5,82.9z M130.7,82.9c0.1-1.4-0.9-2.6-2.3-2.8c-0.2,0-0.3,0-0.5,0
	c-1.4-0.2-2.6,0.8-2.8,2.2c0,0.2,0,0.4,0,0.6V88c0,1.5,1.2,2.8,2.8,2.8c1.5,0,2.8-1.2,2.8-2.8L130.7,82.9z M99.9,80.5
	c0,4.4-3.3,7.4-7.7,7.4c-1,0-2-0.2-3-0.6v6.2c0,0.4-0.4,0.8-0.8,0.8h-3.2c-0.4,0-0.8-0.4-0.8-0.8v-22c0-0.5,0.4-0.9,0.8-1.1
	c2.1-0.7,4.2-1.1,6.4-1.1c5,0,8.4,3,8.4,7.7L99.9,80.5z M94.9,76.9c0-2.2-1.5-3.3-3.6-3.3c-0.7,0-1.4,0.1-2.1,0.4v9.1
	c0.7,0.4,1.4,0.6,2.2,0.6c1.8,0.2,3.4-1.1,3.6-2.9c0-0.1,0-0.3,0-0.4v-3.5H94.9z M189,80.5c0,4.4-3.3,7.4-7.7,7.4c-1,0-2-0.2-3-0.6
	v6.2c0,0.4-0.4,0.8-0.8,0.8h-3.2c-0.4,0-0.8-0.4-0.8-0.8v-22c0-0.5,0.3-0.9,0.8-1.1c2-0.7,4.2-1.1,6.4-1.1c5,0,8.4,3,8.4,7.7
	L189,80.5z M184,76.9c0-2.2-1.5-3.3-3.6-3.3c-0.7,0-1.4,0.1-2.1,0.4v9.1c0.7,0.4,1.4,0.6,2.2,0.6c1.8,0.2,3.4-1.1,3.6-2.9
	c0-0.1,0-0.3,0-0.4v-3.5H184z"/>
<path class="st1" d="M59.4,71.8c0-1-0.8-1.8-1.8-1.8h-3.3l-7.6-8.7c-0.7-0.8-1.9-1.1-2.9-0.8l-2.6,0.8c-0.3,0.1-0.5,0.4-0.4,0.8
	c0,0.1,0.1,0.2,0.1,0.2l8.3,7.9H36.7c-0.4,0-0.7,0.3-0.7,0.6c0,0,0,0,0,0.1v1.4c0,1,0.8,1.8,1.8,1.8h1.9v6.6c0,5,2.6,7.9,7,7.9
	c1.3,0,2.6-0.2,3.9-0.7v4.4c0,1.2,0.9,2.2,2.1,2.2c0,0,0.1,0,0.1,0h1.9c0.4,0,0.8-0.4,0.8-0.8V73.9h3.2c0.4,0,0.7-0.2,0.7-0.6
	c0,0,0-0.1,0-0.1L59.4,71.8z M50.6,83.7c-0.9,0.4-1.8,0.6-2.8,0.6c-2.2,0-3.3-1.1-3.3-3.6V74h6.1V83.7z"/>
<rect x="17" y="49.3" class="st2" width="195" height="58"/>
</svg>
