<?xml version="1.0" standalone="no"?>
<!DOCTYPE svg PUBLIC "-//W3C//DTD SVG 20010904//EN"
 "http://www.w3.org/TR/2001/REC-SVG-20010904/DTD/svg10.dtd">
<svg version="1.0" xmlns="http://www.w3.org/2000/svg"
 width="661.000000pt" height="663.000000pt" viewBox="0 0 661.000000 663.000000"
 preserveAspectRatio="xMidYMid meet">
<metadata>
Created by potrace 1.16, written by Peter Selinger 2001-2019
</metadata>
<g transform="translate(0.000000,663.000000) scale(0.100000,-0.100000)"
fill="#000000" stroke="none">
<path d="M0 3315 l0 -3315 3305 0 3305 0 0 3315 0 3315 -3305 0 -3305 0 0
-3315z m4047 1616 c165 -83 303 -182 429 -308 127 -128 157 -164 273 -343 91
-139 177 -371 217 -590 19 -105 25 -395 11 -510 -61 -473 -346 -929 -747
-1195 -87 -58 -293 -165 -347 -180 -36 -10 -28 14 8 27 18 6 77 33 131 60 257
125 450 293 656 568 57 77 165 300 206 425 119 370 108 754 -31 1125 -163 436
-535 806 -975 971 -49 18 -88 38 -88 45 0 15 144 -37 257 -95z m-1287 68 c0
-5 -14 -15 -31 -21 -119 -41 -327 -164 -454 -268 -140 -115 -308 -311 -385
-449 -20 -36 -41 -75 -47 -86 -79 -141 -145 -356 -174 -566 -15 -107 -7 -391
14 -505 46 -246 169 -530 301 -695 12 -14 32 -41 46 -60 44 -61 223 -234 300
-290 146 -108 310 -195 458 -243 30 -10 52 -24 52 -32 0 -33 -280 92 -435 194
-153 101 -286 223 -415 382 -97 119 -219 352 -274 524 -87 269 -105 578 -49
861 15 77 82 295 102 332 5 10 28 54 49 99 51 105 134 229 231 346 162 194
391 359 641 464 63 27 70 28 70 13z m1728 -1093 c-61 -16 -107 -53 -147 -115
-36 -56 -231 -608 -231 -654 0 -63 -26 -12 -103 206 -45 125 -83 227 -87 227
-3 0 -34 -91 -69 -202 -35 -112 -72 -221 -81 -243 -39 -92 -113 -146 -197
-144 -48 1 -48 1 -11 8 65 13 120 61 158 138 l21 41 -86 242 c-47 133 -90 250
-96 261 -5 11 -23 22 -40 26 -59 11 -27 23 66 23 57 0 95 -4 95 -10 0 -5 -7
-10 -15 -10 -9 0 -18 -7 -21 -15 -5 -12 110 -410 122 -424 2 -2 6 2 8 10 3 8
37 114 77 237 40 122 76 222 79 222 4 0 42 -101 86 -225 43 -123 81 -225 84
-225 3 0 34 96 69 212 67 225 92 286 141 342 43 48 123 86 179 85 l46 0 -47
-13z m-1168 -506 c0 -280 -3 -510 -7 -510 -5 0 -7 229 -5 510 1 280 5 510 7
510 3 0 5 -229 5 -510z m-586 364 l46 -7 0 -54 c0 -34 -4 -52 -10 -48 -5 3
-10 14 -10 24 0 43 -77 73 -130 51 -49 -20 -74 -85 -50 -130 5 -10 59 -58 120
-106 120 -95 160 -152 160 -226 0 -75 -56 -152 -129 -177 -90 -30 -204 1 -248
67 -36 55 -39 111 -10 176 14 31 31 56 36 56 14 0 14 -1 -6 -41 -11 -21 -18
-56 -18 -91 0 -51 3 -60 34 -92 57 -59 128 -69 204 -30 63 33 88 135 47 201
-10 18 -54 60 -97 95 -141 114 -153 129 -153 185 0 61 29 110 80 135 38 19 62
21 134 12z m-506 -961 c2 -13 -1 -23 -6 -23 -5 0 -9 8 -8 18 2 31 -29 18 -40
-18 -14 -43 -37 -59 -61 -44 -20 12 -30 54 -14 54 6 0 8 -6 5 -13 -6 -16 21
-41 35 -33 5 4 13 21 16 39 10 45 13 49 43 45 19 -2 28 -10 30 -25z m130 -188
c18 -25 28 -45 23 -45 -5 0 -11 7 -15 15 -9 24 -28 18 -73 -25 -24 -22 -45
-34 -49 -29 -3 6 -4 11 -3 13 2 1 26 19 53 41 l49 39 -23 18 c-13 11 -17 18
-9 18 8 -1 29 -21 47 -45z m2028 19 c6 -23 11 -25 45 -22 29 3 35 1 27 -9 -6
-7 -28 -13 -50 -13 -34 0 -39 3 -33 19 7 22 -18 46 -40 37 -25 -9 -18 -22 35
-64 27 -22 46 -42 43 -46 -5 -5 -57 32 -107 75 -14 13 24 49 50 49 17 0 25 -7
30 -26z m-1846 -209 c0 -27 -13 -45 -31 -45 -19 0 -24 -18 -21 -63 1 -10 -3
-15 -8 -12 -6 3 -10 26 -10 50 0 38 2 42 19 38 25 -6 47 30 27 46 -13 11 -44
-15 -77 -66 -11 -15 -19 -19 -29 -12 -8 5 -10 9 -5 9 6 0 28 22 49 50 37 48
38 49 62 34 13 -9 24 -22 24 -29z m1679 1 c37 -19 59 -36 53 -40 -6 -4 -20 -1
-31 6 -15 9 -23 9 -35 -1 -18 -15 -21 -48 -5 -53 7 -2 5 -9 -5 -17 -14 -12
-16 -11 -16 6 0 11 -9 45 -19 76 -11 32 -17 57 -13 57 4 -1 36 -16 71 -34z
m-262 -109 c-31 -10 -32 -15 -12 -40 9 -13 21 -17 37 -13 23 6 23 6 1 -5 -18
-10 -20 -15 -11 -35 13 -28 21 -30 38 -9 13 16 30 20 30 7 0 -5 -15 -16 -34
-24 l-33 -16 -24 49 c-13 28 -29 54 -37 58 -11 6 -6 13 19 28 19 11 38 18 44
15 5 -3 -3 -10 -18 -15z m-1222 -9 c14 -6 25 -18 25 -25 0 -12 -3 -11 -16 1
-21 22 -29 20 -42 -8 -9 -20 -7 -25 11 -35 20 -10 20 -10 -5 -5 -20 4 -29 1
-37 -15 -9 -17 -8 -22 9 -31 11 -6 26 -8 33 -4 9 5 9 4 1 -5 -9 -10 -20 -8
-50 8 -22 11 -34 20 -28 21 6 0 24 25 40 55 16 30 30 55 31 55 1 0 14 -5 28
-12z m1033 -134 c-4 -37 -5 -71 -2 -75 3 -5 3 -9 0 -9 -3 0 -19 18 -35 41
l-30 40 -6 -38 c-4 -21 -8 -42 -9 -47 -1 -4 -21 17 -44 48 -24 31 -37 56 -30
56 7 0 25 -19 40 -43 l28 -42 0 40 c0 64 13 73 41 29 25 -40 33 -33 27 21 -3
31 2 41 23 44 3 1 2 -29 -3 -65z m-778 24 c0 -4 -11 -3 -25 2 -22 9 -27 7 -35
-16 -13 -34 -13 -34 10 -34 11 0 20 -4 20 -9 0 -4 -11 -6 -24 -4 -19 4 -24 0
-28 -22 -5 -25 -4 -27 28 -23 24 3 31 1 23 -8 -7 -9 -20 -9 -50 -1 -22 5 -36
13 -31 16 12 7 43 110 37 121 -2 4 13 2 35 -4 22 -5 40 -14 40 -18z m240 -39
l25 -9 -26 4 c-24 2 -28 -1 -33 -33 -3 -20 -6 -48 -6 -63 0 -18 -5 -28 -14
-28 -12 0 -13 7 -5 32 5 18 9 47 9 65 0 27 -4 32 -27 36 -20 3 -16 4 12 5 22
0 51 -4 65 -9z m203 -6 c-31 -6 -29 -25 7 -56 17 -15 30 -33 30 -41 0 -34 -59
-48 -67 -16 -4 12 -3 13 5 1 12 -17 42 -7 42 13 0 8 -10 23 -23 33 -31 24 -38
38 -31 57 4 10 17 15 33 15 23 -2 24 -2 4 -6z"/>
<path d="M4170 2416 c0 -20 13 -27 29 -16 11 6 9 10 -8 19 -17 10 -21 9 -21
-3z"/>
</g>
</svg>
